<mxfile host="app.diagrams.net" modified="2021-01-15T06:08:26.483Z" agent="5.0 (Macintosh; Intel Mac OS X 10_15_5) AppleWebKit/537.36 (KHTML, like Gecko) Chrome/87.0.4280.141 Safari/537.36" etag="IsYaYk0LQEoO0CBBp-4b" version="14.1.8" type="github">
  <diagram id="pvPzZ4vwgpOlM0rEqQq-" name="Page-1">
    <mxGraphModel dx="1186" dy="555" grid="1" gridSize="10" guides="1" tooltips="1" connect="1" arrows="1" fold="1" page="1" pageScale="1" pageWidth="827" pageHeight="1169" math="0" shadow="0">
      <root>
        <mxCell id="0" />
        <mxCell id="1" parent="0" />
        <mxCell id="2XqTr8dZVmVOt3gJeMsM-1" value="采集client" style="html=1;dashed=0;whitespace=wrap;" vertex="1" parent="1">
          <mxGeometry x="120" y="160" width="100" height="50" as="geometry" />
        </mxCell>
        <mxCell id="2XqTr8dZVmVOt3gJeMsM-2" value="采集server" style="html=1;dashed=0;whitespace=wrap;" vertex="1" parent="1">
          <mxGeometry x="120" y="290" width="100" height="50" as="geometry" />
        </mxCell>
      </root>
    </mxGraphModel>
  </diagram>
</mxfile>
